<svg width="14" height="18" viewBox="0 0 14 18" fill="none" xmlns="http://www.w3.org/2000/svg">
<path d="M7.05 0C3.567 0 0.75 2.817 0.75 6.3C0.75 11.025 7.05 18 7.05 18C7.05 18 13.35 11.025 13.35 6.3C13.35 2.817 10.533 0 7.05 0ZM2.55 6.3C2.55 3.816 4.566 1.8 7.05 1.8C9.534 1.8 11.55 3.816 11.55 6.3C11.55 8.892 8.958 12.771 7.05 15.192C5.178 12.789 2.55 8.865 2.55 6.3Z" fill="white"/>
<path d="M7.05 8.55C8.29264 8.55 9.3 7.54264 9.3 6.3C9.3 5.05736 8.29264 4.05 7.05 4.05C5.80736 4.05 4.8 5.05736 4.8 6.3C4.8 7.54264 5.80736 8.55 7.05 8.55Z" fill="white"/>
</svg>
