<svg width="18" height="18" viewBox="0 0 18 18" fill="none" xmlns="http://www.w3.org/2000/svg">
<path d="M13.2019 10.809C13.021 10.7191 11.8455 10.1798 11.6647 10.0899C11.4838 10 11.303 10 11.1221 10.1798C10.9413 10.3596 10.5796 10.8989 10.3987 11.0787C10.3083 11.2584 10.1275 11.2584 9.94661 11.1685C9.31364 10.8989 8.68067 10.5393 8.13813 10.0899C7.68601 9.64045 7.2339 9.10112 6.8722 8.5618C6.78178 8.38202 6.8722 8.20225 6.96262 8.11236C7.05305 8.02247 7.14347 7.8427 7.32432 7.75281C7.41474 7.66292 7.50517 7.48315 7.50517 7.39326C7.59559 7.30337 7.59559 7.1236 7.50517 7.03371C7.41474 6.94382 6.96262 5.86517 6.78178 5.41573C6.69135 4.78652 6.51051 4.78652 6.32966 4.78652H5.87754C5.69669 4.78652 5.42542 4.96629 5.335 5.05618C4.79246 5.59551 4.52118 6.22472 4.52118 6.94382C4.61161 7.75281 4.88288 8.5618 5.42542 9.2809C6.42008 10.7191 7.68601 11.8876 9.22322 12.6067C9.67534 12.7865 10.037 12.9663 10.4891 13.0562C10.9413 13.236 11.3934 13.236 11.9359 13.1461C12.5689 13.0562 13.1114 12.6067 13.4731 12.0674C13.654 11.7079 13.654 11.3483 13.5636 10.9888L13.2019 10.809M15.4625 2.62921C11.9359 -0.876404 6.23924 -0.876404 2.71271 2.62921C-0.180847 5.50562 -0.72339 9.91011 1.26593 13.4157L0 18L4.79246 16.7416C6.14881 17.4607 7.59559 17.8202 9.04237 17.8202C14.0157 17.8202 17.9943 13.8652 17.9943 8.92135C18.0847 6.58427 17.0901 4.33708 15.4625 2.62921M13.021 15.2135C11.8455 15.9326 10.4891 16.382 9.04237 16.382C7.68601 16.382 6.42008 16.0225 5.24457 15.3933L4.9733 15.2135L2.17017 15.9326L2.89356 13.236L2.71271 12.9663C0.542542 9.37079 1.62763 4.8764 5.15415 2.62921C8.68067 0.382023 13.2019 1.55056 15.372 4.96629C17.5422 8.47191 16.5475 13.0562 13.021 15.2135Z" fill="white"/>
</svg>
